<?xml version="1.0" encoding="UTF-8"?>
<svg version="1.1" viewBox="0 0 292 136" xmlns="http://www.w3.org/2000/svg">
<title>reversed-logo</title>
<desc>Created with Sketch.</desc>
<g fill="none" fill-rule="evenodd">
<g transform="translate(16 13)">
<path d="m26.732 89.591v19.773l30.431-18.892-15.842-9.833-14.589 8.952" fill="#4A9FC2"/>
<path d="m42.975 29.921h-2e-3l-16.241 9.951 40.657 24.77-10.051 6.167 8e-3 2.322-1.899-1.161-1.653 1.014 3.559 2.182 8e-3 2.383-5.531-3.36-1.599 0.982 7.136 4.336 9e-3 2.518-9.203-5.591-1.577 0.968 10.786 6.579 8e-3 2.424-12.77-7.791-1.54 0.946 14.317 8.733 6e-3 2.032 25.888-16.072v-19.038l-40.316-25.294" fill="#4A9FC2"/>
<path d="m27.128 19.98 15.845 9.941 14.43-8.79v-20.143l-30.275 18.992" fill="#fff"/>
<path d="m26.732 39.818v-2.445l2.044 1.247 1.6-0.98-3.644-2.214v-2.513l5.703 3.465 1.602-0.981-7.305-4.438v-2.388l9.22 5.652 1.668-1.022-10.888-6.659v-2.46l12.924 7.872 1.592-0.976-14.516-8.936v-1.812l-25.885 16.241v19.04l40.474 25.128 16.017-9.83-40.594-24.911 9.988-6.08" fill="#fff"/>
<path d="m103.46 68.788 4.094-6.396c2.898 2.985 8.612 5.714 13.899 5.714 5.373 0 8.188-2.218 8.188-5.458 0-8.102-24.902-2.302-24.902-18.164 0-6.737 5.799-12.451 16.203-12.451 6.992 0 12.28 2.473 15.947 5.714l-3.752 6.31c-2.473-2.728-6.993-4.946-12.195-4.946-4.69 0-7.59 2.218-7.59 5.117 0 7.248 24.901 1.791 24.901 18.164 0 7.334-6.054 12.877-17.14 12.877-7.079 0-13.389-2.303-17.653-6.481" fill="#fff"/>
<path d="m154.45 68.532v21.405h-8.954v-56.88h8.954v5.628c3.071-4.093 7.846-6.652 13.219-6.652 10.659 0 18.249 8.017 18.249 21.576 0 13.558-7.59 21.66-18.249 21.66-5.202 0-9.807-2.388-13.219-6.737zm22.258-14.923c0-8.017-4.605-13.645-11.683-13.645-4.179 0-8.528 2.388-10.575 5.458v16.288c1.962 3.07 6.396 5.628 10.575 5.628 7.078 0 11.683-5.713 11.683-13.729z" fill="#fff"/>
<path d="m194.22 17.366h8.954v56.88h-8.954v-56.88z" fill="#fff"/>
<path d="m212.89 22.482c0-3.07 1.597-5.543 4.667-5.543s5.543 2.473 5.543 5.543-2.473 5.543-5.543 5.543-4.667-2.473-4.667-5.543zm0.147 10.575h8.954v41.189h-8.954v-41.189z" fill="#fff"/>
<path d="m235.47 64.609v-23.792h-6.822v-7.76h6.822v-11.257h8.954v11.257h8.358v7.76h-8.358v21.575c0 2.814 1.365 4.946 3.923 4.946 1.706 0 3.241-0.767 3.923-1.535l2.132 6.822c-1.62 1.45-4.264 2.644-8.358 2.644-6.992 0-10.574-3.752-10.574-10.66" fill="#fff"/>
</g>
</g>
</svg>
